<mxfile host="app.diagrams.net" modified="2022-06-19T11:44:11.442Z" agent="5.0 (Windows NT 10.0; WOW64) AppleWebKit/537.36 (KHTML, like Gecko) Chrome/75.0.3770.100 Safari/537.36" etag="Nj1qxWC__DEjSeL0z9M2" version="20.0.1" type="github">
  <diagram id="C5RBs43oDa-KdzZeNtuy" name="Page-1">
    <mxGraphModel dx="3462" dy="760" grid="1" gridSize="10" guides="1" tooltips="1" connect="1" arrows="1" fold="1" page="1" pageScale="1" pageWidth="1800" pageHeight="1000" math="0" shadow="0">
      <root>
        <mxCell id="WIyWlLk6GJQsqaUBKTNV-0" />
        <mxCell id="WIyWlLk6GJQsqaUBKTNV-1" parent="WIyWlLk6GJQsqaUBKTNV-0" />
        <mxCell id="aXp1cObeX2M25JBQMIca-23" style="edgeStyle=orthogonalEdgeStyle;rounded=0;orthogonalLoop=1;jettySize=auto;html=1;entryX=0.505;entryY=0.999;entryDx=0;entryDy=0;entryPerimeter=0;endArrow=diamond;endFill=1;" parent="WIyWlLk6GJQsqaUBKTNV-1" source="blP-r5KLYwO_4_YSS9iV-0" target="aXp1cObeX2M25JBQMIca-16" edge="1">
          <mxGeometry relative="1" as="geometry" />
        </mxCell>
        <mxCell id="blP-r5KLYwO_4_YSS9iV-0" value="Car" style="swimlane;fontStyle=1;align=center;verticalAlign=top;childLayout=stackLayout;horizontal=1;startSize=26;horizontalStack=0;resizeParent=1;resizeParentMax=0;resizeLast=0;collapsible=1;marginBottom=0;fillColor=#FFFF00;" parent="WIyWlLk6GJQsqaUBKTNV-1" vertex="1">
          <mxGeometry x="-1279" y="400" width="190" height="240" as="geometry" />
        </mxCell>
        <mxCell id="blP-r5KLYwO_4_YSS9iV-1" value="- producer: Producer&#xa;- engines: List &lt;Engine&gt;" style="text;strokeColor=none;fillColor=#E6E6E6;align=left;verticalAlign=top;spacingLeft=4;spacingRight=4;overflow=hidden;rotatable=0;points=[[0,0.5],[1,0.5]];portConstraint=eastwest;" parent="blP-r5KLYwO_4_YSS9iV-0" vertex="1">
          <mxGeometry y="26" width="190" height="74" as="geometry" />
        </mxCell>
        <mxCell id="blP-r5KLYwO_4_YSS9iV-2" value="" style="line;strokeWidth=1;fillColor=none;align=left;verticalAlign=middle;spacingTop=-1;spacingLeft=3;spacingRight=3;rotatable=0;labelPosition=right;points=[];portConstraint=eastwest;" parent="blP-r5KLYwO_4_YSS9iV-0" vertex="1">
          <mxGeometry y="100" width="190" height="8" as="geometry" />
        </mxCell>
        <mxCell id="blP-r5KLYwO_4_YSS9iV-3" value="+ Car (Producer, List&lt;Engine&gt;)&#xa;+ drive(int x, int y)&#xa;+ setProducer(Producer)&#xa;+ getProducer()&#xa;+ setEngine(List&lt;Engine&gt;)&#xa;+ getEngine()&#xa;" style="text;strokeColor=none;fillColor=#97D077;align=left;verticalAlign=top;spacingLeft=4;spacingRight=4;overflow=hidden;rotatable=0;points=[[0,0.5],[1,0.5]];portConstraint=eastwest;" parent="blP-r5KLYwO_4_YSS9iV-0" vertex="1">
          <mxGeometry y="108" width="190" height="132" as="geometry" />
        </mxCell>
        <mxCell id="blP-r5KLYwO_4_YSS9iV-8" value="Producer" style="swimlane;fontStyle=1;align=center;verticalAlign=top;childLayout=stackLayout;horizontal=1;startSize=26;horizontalStack=0;resizeParent=1;resizeParentMax=0;resizeLast=0;collapsible=1;marginBottom=0;fillColor=#FFFF00;" parent="WIyWlLk6GJQsqaUBKTNV-1" vertex="1">
          <mxGeometry x="-889" y="370" width="160" height="120" as="geometry" />
        </mxCell>
        <mxCell id="blP-r5KLYwO_4_YSS9iV-9" value="- name: String" style="text;strokeColor=none;fillColor=#E6E6E6;align=left;verticalAlign=top;spacingLeft=4;spacingRight=4;overflow=hidden;rotatable=0;points=[[0,0.5],[1,0.5]];portConstraint=eastwest;" parent="blP-r5KLYwO_4_YSS9iV-8" vertex="1">
          <mxGeometry y="26" width="160" height="26" as="geometry" />
        </mxCell>
        <mxCell id="blP-r5KLYwO_4_YSS9iV-10" value="" style="line;strokeWidth=1;fillColor=none;align=left;verticalAlign=middle;spacingTop=-1;spacingLeft=3;spacingRight=3;rotatable=0;labelPosition=right;points=[];portConstraint=eastwest;" parent="blP-r5KLYwO_4_YSS9iV-8" vertex="1">
          <mxGeometry y="52" width="160" height="8" as="geometry" />
        </mxCell>
        <mxCell id="blP-r5KLYwO_4_YSS9iV-11" value="+ Producer(name)&#xa;+ getProducer()&#xa;+ setProducer(name)" style="text;strokeColor=none;fillColor=#97D077;align=left;verticalAlign=top;spacingLeft=4;spacingRight=4;overflow=hidden;rotatable=0;points=[[0,0.5],[1,0.5]];portConstraint=eastwest;" parent="blP-r5KLYwO_4_YSS9iV-8" vertex="1">
          <mxGeometry y="60" width="160" height="60" as="geometry" />
        </mxCell>
        <mxCell id="blP-r5KLYwO_4_YSS9iV-12" value="Engine" style="swimlane;fontStyle=1;align=center;verticalAlign=top;childLayout=stackLayout;horizontal=1;startSize=26;horizontalStack=0;resizeParent=1;resizeParentMax=0;resizeLast=0;collapsible=1;marginBottom=0;fillColor=#FFFF00;" parent="WIyWlLk6GJQsqaUBKTNV-1" vertex="1">
          <mxGeometry x="-889" y="520" width="265" height="130" as="geometry" />
        </mxCell>
        <mxCell id="blP-r5KLYwO_4_YSS9iV-13" value="- producer: Producer&#xa;- speed: int&#xa;" style="text;strokeColor=none;fillColor=#E6E6E6;align=left;verticalAlign=top;spacingLeft=4;spacingRight=4;overflow=hidden;rotatable=0;points=[[0,0.5],[1,0.5]];portConstraint=eastwest;" parent="blP-r5KLYwO_4_YSS9iV-12" vertex="1">
          <mxGeometry y="26" width="265" height="44" as="geometry" />
        </mxCell>
        <mxCell id="blP-r5KLYwO_4_YSS9iV-14" value="" style="line;strokeWidth=1;fillColor=none;align=left;verticalAlign=middle;spacingTop=-1;spacingLeft=3;spacingRight=3;rotatable=0;labelPosition=right;points=[];portConstraint=eastwest;" parent="blP-r5KLYwO_4_YSS9iV-12" vertex="1">
          <mxGeometry y="70" width="265" height="8" as="geometry" />
        </mxCell>
        <mxCell id="blP-r5KLYwO_4_YSS9iV-15" value="+ Engine(int speed, Producer producer)&#xa;+ setSpeed(int speed)&#xa;+ getSpeed():int" style="text;strokeColor=none;fillColor=#97D077;align=left;verticalAlign=top;spacingLeft=4;spacingRight=4;overflow=hidden;rotatable=0;points=[[0,0.5],[1,0.5]];portConstraint=eastwest;" parent="blP-r5KLYwO_4_YSS9iV-12" vertex="1">
          <mxGeometry y="78" width="265" height="52" as="geometry" />
        </mxCell>
        <mxCell id="blP-r5KLYwO_4_YSS9iV-16" style="edgeStyle=orthogonalEdgeStyle;rounded=0;orthogonalLoop=1;jettySize=auto;html=1;exitX=0;exitY=0.5;exitDx=0;exitDy=0;endArrow=diamond;endFill=0;entryX=1.014;entryY=0.662;entryDx=0;entryDy=0;entryPerimeter=0;" parent="WIyWlLk6GJQsqaUBKTNV-1" source="blP-r5KLYwO_4_YSS9iV-13" target="blP-r5KLYwO_4_YSS9iV-1" edge="1">
          <mxGeometry relative="1" as="geometry">
            <Array as="points">
              <mxPoint x="-889" y="559" />
              <mxPoint x="-984" y="559" />
              <mxPoint x="-984" y="475" />
            </Array>
            <mxPoint x="-1029" y="540" as="targetPoint" />
          </mxGeometry>
        </mxCell>
        <mxCell id="blP-r5KLYwO_4_YSS9iV-17" value="1" style="text;html=1;resizable=0;autosize=1;align=center;verticalAlign=middle;points=[];fillColor=none;strokeColor=none;rounded=0;" parent="WIyWlLk6GJQsqaUBKTNV-1" vertex="1">
          <mxGeometry x="-1079" y="473" width="20" height="20" as="geometry" />
        </mxCell>
        <mxCell id="blP-r5KLYwO_4_YSS9iV-18" value="1..*" style="text;html=1;resizable=0;autosize=1;align=center;verticalAlign=middle;points=[];fillColor=none;strokeColor=none;rounded=0;" parent="WIyWlLk6GJQsqaUBKTNV-1" vertex="1">
          <mxGeometry x="-924" y="540" width="30" height="20" as="geometry" />
        </mxCell>
        <mxCell id="blP-r5KLYwO_4_YSS9iV-20" value="1" style="text;html=1;resizable=0;autosize=1;align=center;verticalAlign=middle;points=[];fillColor=none;strokeColor=none;rounded=0;" parent="WIyWlLk6GJQsqaUBKTNV-1" vertex="1">
          <mxGeometry x="-914" y="390" width="20" height="20" as="geometry" />
        </mxCell>
        <mxCell id="blP-r5KLYwO_4_YSS9iV-21" value="0..*" style="text;html=1;resizable=0;autosize=1;align=center;verticalAlign=middle;points=[];fillColor=none;strokeColor=none;rounded=0;" parent="WIyWlLk6GJQsqaUBKTNV-1" vertex="1">
          <mxGeometry x="-1079" y="440" width="30" height="20" as="geometry" />
        </mxCell>
        <mxCell id="blP-r5KLYwO_4_YSS9iV-23" style="edgeStyle=orthogonalEdgeStyle;rounded=0;orthogonalLoop=1;jettySize=auto;html=1;exitX=1;exitY=0.5;exitDx=0;exitDy=0;entryX=1;entryY=0.5;entryDx=0;entryDy=0;endArrow=diamond;endFill=1;" parent="WIyWlLk6GJQsqaUBKTNV-1" source="blP-r5KLYwO_4_YSS9iV-9" target="blP-r5KLYwO_4_YSS9iV-13" edge="1">
          <mxGeometry relative="1" as="geometry" />
        </mxCell>
        <mxCell id="blP-r5KLYwO_4_YSS9iV-24" value="1" style="text;html=1;resizable=0;autosize=1;align=center;verticalAlign=middle;points=[];fillColor=none;strokeColor=none;rounded=0;" parent="WIyWlLk6GJQsqaUBKTNV-1" vertex="1">
          <mxGeometry x="-729" y="390" width="20" height="20" as="geometry" />
        </mxCell>
        <mxCell id="blP-r5KLYwO_4_YSS9iV-25" value="0..*" style="text;html=1;resizable=0;autosize=1;align=center;verticalAlign=middle;points=[];fillColor=none;strokeColor=none;rounded=0;" parent="WIyWlLk6GJQsqaUBKTNV-1" vertex="1">
          <mxGeometry x="-729" y="560" width="30" height="20" as="geometry" />
        </mxCell>
        <mxCell id="blP-r5KLYwO_4_YSS9iV-27" style="edgeStyle=orthogonalEdgeStyle;rounded=0;orthogonalLoop=1;jettySize=auto;html=1;exitX=0;exitY=0.5;exitDx=0;exitDy=0;entryX=1;entryY=0.5;entryDx=0;entryDy=0;endArrow=diamond;endFill=1;" parent="WIyWlLk6GJQsqaUBKTNV-1" source="blP-r5KLYwO_4_YSS9iV-9" target="blP-r5KLYwO_4_YSS9iV-1" edge="1">
          <mxGeometry relative="1" as="geometry" />
        </mxCell>
        <mxCell id="blP-r5KLYwO_4_YSS9iV-38" style="edgeStyle=orthogonalEdgeStyle;rounded=0;orthogonalLoop=1;jettySize=auto;html=1;exitX=0.5;exitY=0;exitDx=0;exitDy=0;entryX=0.375;entryY=1;entryDx=0;entryDy=0;entryPerimeter=0;endArrow=block;endFill=0;" parent="WIyWlLk6GJQsqaUBKTNV-1" source="blP-r5KLYwO_4_YSS9iV-30" target="blP-r5KLYwO_4_YSS9iV-15" edge="1">
          <mxGeometry relative="1" as="geometry" />
        </mxCell>
        <mxCell id="blP-r5KLYwO_4_YSS9iV-30" value="ThermalEngine" style="swimlane;fontStyle=1;align=center;verticalAlign=top;childLayout=stackLayout;horizontal=1;startSize=26;horizontalStack=0;resizeParent=1;resizeParentMax=0;resizeLast=0;collapsible=1;marginBottom=0;fillColor=#FFFF00;" parent="WIyWlLk6GJQsqaUBKTNV-1" vertex="1">
          <mxGeometry x="-1174" y="690" width="255" height="120" as="geometry" />
        </mxCell>
        <mxCell id="blP-r5KLYwO_4_YSS9iV-31" value="- speed: int=114" style="text;strokeColor=none;fillColor=#E6E6E6;align=left;verticalAlign=top;spacingLeft=4;spacingRight=4;overflow=hidden;rotatable=0;points=[[0,0.5],[1,0.5]];portConstraint=eastwest;fontStyle=4" parent="blP-r5KLYwO_4_YSS9iV-30" vertex="1">
          <mxGeometry y="26" width="255" height="26" as="geometry" />
        </mxCell>
        <mxCell id="blP-r5KLYwO_4_YSS9iV-32" value="" style="line;strokeWidth=1;fillColor=none;align=left;verticalAlign=middle;spacingTop=-1;spacingLeft=3;spacingRight=3;rotatable=0;labelPosition=right;points=[];portConstraint=eastwest;" parent="blP-r5KLYwO_4_YSS9iV-30" vertex="1">
          <mxGeometry y="52" width="255" height="8" as="geometry" />
        </mxCell>
        <mxCell id="blP-r5KLYwO_4_YSS9iV-33" value="+ ThermalEngine(int speed, Producer producer)&#xa;+ setSpeed(int speed)&#xa;+ getSpeed():int" style="text;strokeColor=none;fillColor=#97D077;align=left;verticalAlign=top;spacingLeft=4;spacingRight=4;overflow=hidden;rotatable=0;points=[[0,0.5],[1,0.5]];portConstraint=eastwest;" parent="blP-r5KLYwO_4_YSS9iV-30" vertex="1">
          <mxGeometry y="60" width="255" height="60" as="geometry" />
        </mxCell>
        <mxCell id="blP-r5KLYwO_4_YSS9iV-40" style="edgeStyle=orthogonalEdgeStyle;rounded=0;orthogonalLoop=1;jettySize=auto;html=1;exitX=0.5;exitY=0;exitDx=0;exitDy=0;endArrow=block;endFill=0;" parent="WIyWlLk6GJQsqaUBKTNV-1" source="blP-r5KLYwO_4_YSS9iV-34" edge="1">
          <mxGeometry relative="1" as="geometry">
            <mxPoint x="-829" y="650" as="targetPoint" />
          </mxGeometry>
        </mxCell>
        <mxCell id="blP-r5KLYwO_4_YSS9iV-34" value="ElectricalEngine" style="swimlane;fontStyle=1;align=center;verticalAlign=top;childLayout=stackLayout;horizontal=1;startSize=26;horizontalStack=0;resizeParent=1;resizeParentMax=0;resizeLast=0;collapsible=1;marginBottom=0;fillColor=#FFFF00;" parent="WIyWlLk6GJQsqaUBKTNV-1" vertex="1">
          <mxGeometry x="-879" y="690" width="255" height="120" as="geometry" />
        </mxCell>
        <mxCell id="blP-r5KLYwO_4_YSS9iV-35" value="- speed: int=180" style="text;strokeColor=none;fillColor=#E6E6E6;align=left;verticalAlign=top;spacingLeft=4;spacingRight=4;overflow=hidden;rotatable=0;points=[[0,0.5],[1,0.5]];portConstraint=eastwest;fontStyle=4" parent="blP-r5KLYwO_4_YSS9iV-34" vertex="1">
          <mxGeometry y="26" width="255" height="26" as="geometry" />
        </mxCell>
        <mxCell id="blP-r5KLYwO_4_YSS9iV-36" value="" style="line;strokeWidth=1;fillColor=none;align=left;verticalAlign=middle;spacingTop=-1;spacingLeft=3;spacingRight=3;rotatable=0;labelPosition=right;points=[];portConstraint=eastwest;" parent="blP-r5KLYwO_4_YSS9iV-34" vertex="1">
          <mxGeometry y="52" width="255" height="8" as="geometry" />
        </mxCell>
        <mxCell id="blP-r5KLYwO_4_YSS9iV-37" value="+ ElectricalEngine(int speed, Producer producer)&#xa;+ setSpeed(int speed)&#xa;+ getSpeed():int" style="text;strokeColor=none;fillColor=#97D077;align=left;verticalAlign=top;spacingLeft=4;spacingRight=4;overflow=hidden;rotatable=0;points=[[0,0.5],[1,0.5]];portConstraint=eastwest;fontStyle=0" parent="blP-r5KLYwO_4_YSS9iV-34" vertex="1">
          <mxGeometry y="60" width="255" height="60" as="geometry" />
        </mxCell>
        <mxCell id="blP-r5KLYwO_4_YSS9iV-42" value="&lt;&lt;Flying&gt;&gt; Interface" style="swimlane;fontStyle=1;align=center;verticalAlign=top;childLayout=stackLayout;horizontal=1;startSize=26;horizontalStack=0;resizeParent=1;resizeParentMax=0;resizeLast=0;collapsible=1;marginBottom=0;fillColor=#FFFF00;" parent="WIyWlLk6GJQsqaUBKTNV-1" vertex="1">
          <mxGeometry x="-1594" y="507" width="170" height="86" as="geometry" />
        </mxCell>
        <mxCell id="blP-r5KLYwO_4_YSS9iV-43" value="      " style="text;strokeColor=none;fillColor=#E6E6E6;align=left;verticalAlign=top;spacingLeft=4;spacingRight=4;overflow=hidden;rotatable=0;points=[[0,0.5],[1,0.5]];portConstraint=eastwest;" parent="blP-r5KLYwO_4_YSS9iV-42" vertex="1">
          <mxGeometry y="26" width="170" height="26" as="geometry" />
        </mxCell>
        <mxCell id="blP-r5KLYwO_4_YSS9iV-44" value="" style="line;strokeWidth=1;fillColor=none;align=left;verticalAlign=middle;spacingTop=-1;spacingLeft=3;spacingRight=3;rotatable=0;labelPosition=right;points=[];portConstraint=eastwest;" parent="blP-r5KLYwO_4_YSS9iV-42" vertex="1">
          <mxGeometry y="52" width="170" height="8" as="geometry" />
        </mxCell>
        <mxCell id="blP-r5KLYwO_4_YSS9iV-45" value="drive(int x,int y, int z):void" style="text;strokeColor=none;fillColor=#97D077;align=left;verticalAlign=top;spacingLeft=4;spacingRight=4;overflow=hidden;rotatable=0;points=[[0,0.5],[1,0.5]];portConstraint=eastwest;" parent="blP-r5KLYwO_4_YSS9iV-42" vertex="1">
          <mxGeometry y="60" width="170" height="26" as="geometry" />
        </mxCell>
        <mxCell id="aXp1cObeX2M25JBQMIca-26" style="edgeStyle=orthogonalEdgeStyle;rounded=0;orthogonalLoop=1;jettySize=auto;html=1;entryX=0.53;entryY=1.021;entryDx=0;entryDy=0;entryPerimeter=0;endArrow=block;endFill=0;" parent="WIyWlLk6GJQsqaUBKTNV-1" source="blP-r5KLYwO_4_YSS9iV-46" target="blP-r5KLYwO_4_YSS9iV-3" edge="1">
          <mxGeometry relative="1" as="geometry">
            <Array as="points">
              <mxPoint x="-1184" y="690" />
              <mxPoint x="-1178" y="690" />
            </Array>
          </mxGeometry>
        </mxCell>
        <mxCell id="blP-r5KLYwO_4_YSS9iV-46" value="FlyingCar" style="swimlane;fontStyle=1;align=center;verticalAlign=top;childLayout=stackLayout;horizontal=1;startSize=26;horizontalStack=0;resizeParent=1;resizeParentMax=0;resizeLast=0;collapsible=1;marginBottom=0;fillColor=#FFFF00;" parent="WIyWlLk6GJQsqaUBKTNV-1" vertex="1">
          <mxGeometry x="-1344" y="850" width="180" height="86" as="geometry" />
        </mxCell>
        <mxCell id="ecQhq5Q0LJdTcY4nDZZT-23" value="Extends" style="endArrow=block;endSize=16;endFill=0;html=1;rounded=0;" parent="blP-r5KLYwO_4_YSS9iV-46" target="blP-r5KLYwO_4_YSS9iV-3" edge="1">
          <mxGeometry width="160" relative="1" as="geometry">
            <mxPoint x="-100" y="10" as="sourcePoint" />
            <mxPoint x="60" y="10" as="targetPoint" />
          </mxGeometry>
        </mxCell>
        <mxCell id="blP-r5KLYwO_4_YSS9iV-47" value="   " style="text;strokeColor=none;fillColor=#E6E6E6;align=left;verticalAlign=top;spacingLeft=4;spacingRight=4;overflow=hidden;rotatable=0;points=[[0,0.5],[1,0.5]];portConstraint=eastwest;" parent="blP-r5KLYwO_4_YSS9iV-46" vertex="1">
          <mxGeometry y="26" width="180" height="26" as="geometry" />
        </mxCell>
        <mxCell id="blP-r5KLYwO_4_YSS9iV-48" value="" style="line;strokeWidth=1;fillColor=none;align=left;verticalAlign=middle;spacingTop=-1;spacingLeft=3;spacingRight=3;rotatable=0;labelPosition=right;points=[];portConstraint=eastwest;" parent="blP-r5KLYwO_4_YSS9iV-46" vertex="1">
          <mxGeometry y="52" width="180" height="8" as="geometry" />
        </mxCell>
        <mxCell id="blP-r5KLYwO_4_YSS9iV-49" value="+ timeTravel(Datetime localDateTime)" style="text;strokeColor=none;fillColor=#97D077;align=left;verticalAlign=top;spacingLeft=4;spacingRight=4;overflow=hidden;rotatable=0;points=[[0,0.5],[1,0.5]];portConstraint=eastwest;" parent="blP-r5KLYwO_4_YSS9iV-46" vertex="1">
          <mxGeometry y="60" width="180" height="26" as="geometry" />
        </mxCell>
        <mxCell id="aXp1cObeX2M25JBQMIca-2" value="Nuclear Engines" style="swimlane;fontStyle=1;align=center;verticalAlign=top;childLayout=stackLayout;horizontal=1;startSize=26;horizontalStack=0;resizeParent=1;resizeParentMax=0;resizeLast=0;collapsible=1;marginBottom=0;fillColor=#FFFF00;" parent="WIyWlLk6GJQsqaUBKTNV-1" vertex="1">
          <mxGeometry x="-613" y="690" width="285" height="128" as="geometry" />
        </mxCell>
        <mxCell id="aXp1cObeX2M25JBQMIca-3" value="- speed: int=233&#xa;- nuclearEnergyValue: int&#xa;" style="text;strokeColor=none;fillColor=#E6E6E6;align=left;verticalAlign=top;spacingLeft=4;spacingRight=4;overflow=hidden;rotatable=0;points=[[0,0.5],[1,0.5]];portConstraint=eastwest;fontStyle=0" parent="aXp1cObeX2M25JBQMIca-2" vertex="1">
          <mxGeometry y="26" width="285" height="34" as="geometry" />
        </mxCell>
        <mxCell id="aXp1cObeX2M25JBQMIca-4" value="" style="line;strokeWidth=1;fillColor=none;align=left;verticalAlign=middle;spacingTop=-1;spacingLeft=3;spacingRight=3;rotatable=0;labelPosition=right;points=[];portConstraint=eastwest;" parent="aXp1cObeX2M25JBQMIca-2" vertex="1">
          <mxGeometry y="60" width="285" height="8" as="geometry" />
        </mxCell>
        <mxCell id="aXp1cObeX2M25JBQMIca-5" value="+ NuclearEngine(int speed, Producer producer)&#xa;+ setSpeed(int speed)&#xa;+ getSpeed():int" style="text;strokeColor=none;fillColor=#97D077;align=left;verticalAlign=top;spacingLeft=4;spacingRight=4;overflow=hidden;rotatable=0;points=[[0,0.5],[1,0.5]];portConstraint=eastwest;fontStyle=0" parent="aXp1cObeX2M25JBQMIca-2" vertex="1">
          <mxGeometry y="68" width="285" height="60" as="geometry" />
        </mxCell>
        <mxCell id="aXp1cObeX2M25JBQMIca-7" value="SolarEngine" style="swimlane;fontStyle=1;align=center;verticalAlign=top;childLayout=stackLayout;horizontal=1;startSize=26;horizontalStack=0;resizeParent=1;resizeParentMax=0;resizeLast=0;collapsible=1;marginBottom=0;fillColor=#FFFF00;" parent="WIyWlLk6GJQsqaUBKTNV-1" vertex="1">
          <mxGeometry x="-304" y="690" width="270" height="120" as="geometry" />
        </mxCell>
        <mxCell id="aXp1cObeX2M25JBQMIca-8" value="- speed: int=90" style="text;strokeColor=none;fillColor=#E6E6E6;align=left;verticalAlign=top;spacingLeft=4;spacingRight=4;overflow=hidden;rotatable=0;points=[[0,0.5],[1,0.5]];portConstraint=eastwest;fontStyle=4" parent="aXp1cObeX2M25JBQMIca-7" vertex="1">
          <mxGeometry y="26" width="270" height="26" as="geometry" />
        </mxCell>
        <mxCell id="aXp1cObeX2M25JBQMIca-9" value="" style="line;strokeWidth=1;fillColor=none;align=left;verticalAlign=middle;spacingTop=-1;spacingLeft=3;spacingRight=3;rotatable=0;labelPosition=right;points=[];portConstraint=eastwest;" parent="aXp1cObeX2M25JBQMIca-7" vertex="1">
          <mxGeometry y="52" width="270" height="8" as="geometry" />
        </mxCell>
        <mxCell id="aXp1cObeX2M25JBQMIca-10" value="+ SolarEngine(int speed, Producer producer)&#xa;+ setSpeed(int speed)&#xa;+ getSpeed():int" style="text;strokeColor=none;fillColor=#97D077;align=left;verticalAlign=top;spacingLeft=4;spacingRight=4;overflow=hidden;rotatable=0;points=[[0,0.5],[1,0.5]];portConstraint=eastwest;fontStyle=0" parent="aXp1cObeX2M25JBQMIca-7" vertex="1">
          <mxGeometry y="60" width="270" height="60" as="geometry" />
        </mxCell>
        <mxCell id="aXp1cObeX2M25JBQMIca-13" value="Owner" style="swimlane;fontStyle=1;align=center;verticalAlign=top;childLayout=stackLayout;horizontal=1;startSize=26;horizontalStack=0;resizeParent=1;resizeParentMax=0;resizeLast=0;collapsible=1;marginBottom=0;strokeColor=#FFFF66;fillColor=#FFFF00;" parent="WIyWlLk6GJQsqaUBKTNV-1" vertex="1">
          <mxGeometry x="-1124" y="80" width="230" height="218" as="geometry" />
        </mxCell>
        <mxCell id="aXp1cObeX2M25JBQMIca-14" value="- name: String&#xa;- adress: String&#xa;- cars: List&lt;Car&gt;" style="text;strokeColor=none;fillColor=#E6E6E6;align=left;verticalAlign=top;spacingLeft=4;spacingRight=4;overflow=hidden;rotatable=0;points=[[0,0.5],[1,0.5]];portConstraint=eastwest;" parent="aXp1cObeX2M25JBQMIca-13" vertex="1">
          <mxGeometry y="26" width="230" height="54" as="geometry" />
        </mxCell>
        <mxCell id="aXp1cObeX2M25JBQMIca-15" value="" style="line;strokeWidth=1;fillColor=none;align=left;verticalAlign=middle;spacingTop=-1;spacingLeft=3;spacingRight=3;rotatable=0;labelPosition=right;points=[];portConstraint=eastwest;" parent="aXp1cObeX2M25JBQMIca-13" vertex="1">
          <mxGeometry y="80" width="230" height="8" as="geometry" />
        </mxCell>
        <mxCell id="aXp1cObeX2M25JBQMIca-16" value="+ Owner (name, address, List&lt;Car&gt;)&#xa;+ getName()&#xa;+ setName(string)&#xa;+ getaddress()&#xa;+ setAddress(string)&#xa;+ getCarList()&#xa;+ setCarList(List&lt;Car))" style="text;strokeColor=none;fillColor=#97D077;align=left;verticalAlign=top;spacingLeft=4;spacingRight=4;overflow=hidden;rotatable=0;points=[[0,0.5],[1,0.5]];portConstraint=eastwest;" parent="aXp1cObeX2M25JBQMIca-13" vertex="1">
          <mxGeometry y="88" width="230" height="130" as="geometry" />
        </mxCell>
        <mxCell id="aXp1cObeX2M25JBQMIca-19" value="0..*" style="text;html=1;resizable=0;autosize=1;align=center;verticalAlign=middle;points=[];fillColor=none;strokeColor=none;rounded=0;" parent="WIyWlLk6GJQsqaUBKTNV-1" vertex="1">
          <mxGeometry x="-1179" y="380" width="30" height="20" as="geometry" />
        </mxCell>
        <mxCell id="aXp1cObeX2M25JBQMIca-20" value="1" style="text;html=1;resizable=0;autosize=1;align=center;verticalAlign=middle;points=[];fillColor=none;strokeColor=none;rounded=0;" parent="WIyWlLk6GJQsqaUBKTNV-1" vertex="1">
          <mxGeometry x="-1039" y="298" width="20" height="20" as="geometry" />
        </mxCell>
        <mxCell id="ecQhq5Q0LJdTcY4nDZZT-5" value="Extends" style="endArrow=block;endSize=16;endFill=0;html=1;rounded=0;entryX=1;entryY=0.5;entryDx=0;entryDy=0;" parent="WIyWlLk6GJQsqaUBKTNV-1" source="aXp1cObeX2M25JBQMIca-2" target="blP-r5KLYwO_4_YSS9iV-15" edge="1">
          <mxGeometry width="160" relative="1" as="geometry">
            <mxPoint x="-514" y="610" as="sourcePoint" />
            <mxPoint x="-354" y="610" as="targetPoint" />
          </mxGeometry>
        </mxCell>
        <mxCell id="ecQhq5Q0LJdTcY4nDZZT-7" value="Extends" style="endArrow=block;endSize=16;endFill=0;html=1;rounded=0;entryX=1;entryY=0.038;entryDx=0;entryDy=0;entryPerimeter=0;exitX=0.5;exitY=0;exitDx=0;exitDy=0;" parent="WIyWlLk6GJQsqaUBKTNV-1" source="aXp1cObeX2M25JBQMIca-7" target="blP-r5KLYwO_4_YSS9iV-15" edge="1">
          <mxGeometry width="160" relative="1" as="geometry">
            <mxPoint x="-334" y="584.5" as="sourcePoint" />
            <mxPoint x="-174" y="584.5" as="targetPoint" />
          </mxGeometry>
        </mxCell>
        <mxCell id="ecQhq5Q0LJdTcY4nDZZT-8" value="" style="endArrow=block;dashed=1;endFill=0;endSize=12;html=1;rounded=0;exitX=0.5;exitY=0;exitDx=0;exitDy=0;" parent="WIyWlLk6GJQsqaUBKTNV-1" source="blP-r5KLYwO_4_YSS9iV-46" target="blP-r5KLYwO_4_YSS9iV-45" edge="1">
          <mxGeometry width="160" relative="1" as="geometry">
            <mxPoint x="-1134" y="750" as="sourcePoint" />
            <mxPoint x="-974" y="750" as="targetPoint" />
          </mxGeometry>
        </mxCell>
        <mxCell id="ecQhq5Q0LJdTcY4nDZZT-9" value="Plane" style="swimlane;fontStyle=1;align=center;verticalAlign=top;childLayout=stackLayout;horizontal=1;startSize=26;horizontalStack=0;resizeParent=1;resizeParentMax=0;resizeLast=0;collapsible=1;marginBottom=0;fillColor=#FFFF00;" parent="WIyWlLk6GJQsqaUBKTNV-1" vertex="1">
          <mxGeometry x="-1764" y="724" width="280" height="110" as="geometry" />
        </mxCell>
        <mxCell id="ecQhq5Q0LJdTcY4nDZZT-10" value="- passengerList: List" style="text;strokeColor=none;fillColor=#E6E6E6;align=left;verticalAlign=top;spacingLeft=4;spacingRight=4;overflow=hidden;rotatable=0;points=[[0,0.5],[1,0.5]];portConstraint=eastwest;" parent="ecQhq5Q0LJdTcY4nDZZT-9" vertex="1">
          <mxGeometry y="26" width="280" height="26" as="geometry" />
        </mxCell>
        <mxCell id="ecQhq5Q0LJdTcY4nDZZT-11" value="" style="line;strokeWidth=1;fillColor=none;align=left;verticalAlign=middle;spacingTop=-1;spacingLeft=3;spacingRight=3;rotatable=0;labelPosition=right;points=[];portConstraint=eastwest;" parent="ecQhq5Q0LJdTcY4nDZZT-9" vertex="1">
          <mxGeometry y="52" width="280" height="8" as="geometry" />
        </mxCell>
        <mxCell id="ecQhq5Q0LJdTcY4nDZZT-12" value="+ getPassengerList(): List&#xa;+ setPassengerList(List passengerList): void" style="text;strokeColor=none;fillColor=#97D077;align=left;verticalAlign=top;spacingLeft=4;spacingRight=4;overflow=hidden;rotatable=0;points=[[0,0.5],[1,0.5]];portConstraint=eastwest;" parent="ecQhq5Q0LJdTcY4nDZZT-9" vertex="1">
          <mxGeometry y="60" width="280" height="50" as="geometry" />
        </mxCell>
        <mxCell id="ecQhq5Q0LJdTcY4nDZZT-14" value="" style="endArrow=block;dashed=1;endFill=0;endSize=12;html=1;rounded=0;entryX=0.5;entryY=0.769;entryDx=0;entryDy=0;entryPerimeter=0;" parent="WIyWlLk6GJQsqaUBKTNV-1" target="blP-r5KLYwO_4_YSS9iV-45" edge="1">
          <mxGeometry width="160" relative="1" as="geometry">
            <mxPoint x="-1454" y="870" as="sourcePoint" />
            <mxPoint x="-1294" y="870" as="targetPoint" />
          </mxGeometry>
        </mxCell>
        <mxCell id="ecQhq5Q0LJdTcY4nDZZT-16" value="" style="endArrow=block;dashed=1;endFill=0;endSize=12;html=1;rounded=0;exitX=0.5;exitY=0;exitDx=0;exitDy=0;entryX=0.318;entryY=1.115;entryDx=0;entryDy=0;entryPerimeter=0;" parent="WIyWlLk6GJQsqaUBKTNV-1" source="ecQhq5Q0LJdTcY4nDZZT-9" target="blP-r5KLYwO_4_YSS9iV-45" edge="1">
          <mxGeometry width="160" relative="1" as="geometry">
            <mxPoint x="-1594" y="646" as="sourcePoint" />
            <mxPoint x="-1434" y="646" as="targetPoint" />
          </mxGeometry>
        </mxCell>
        <mxCell id="ecQhq5Q0LJdTcY4nDZZT-17" value="TimeTravellingFlyingCars" style="swimlane;fontStyle=1;align=center;verticalAlign=top;childLayout=stackLayout;horizontal=1;startSize=26;horizontalStack=0;resizeParent=1;resizeParentMax=0;resizeLast=0;collapsible=1;marginBottom=0;fillColor=#FFFF00;" parent="WIyWlLk6GJQsqaUBKTNV-1" vertex="1">
          <mxGeometry x="-1674" y="870" width="310" height="110" as="geometry" />
        </mxCell>
        <mxCell id="ecQhq5Q0LJdTcY4nDZZT-18" value="- localDateTime: Date" style="text;strokeColor=none;fillColor=#E6E6E6;align=left;verticalAlign=top;spacingLeft=4;spacingRight=4;overflow=hidden;rotatable=0;points=[[0,0.5],[1,0.5]];portConstraint=eastwest;" parent="ecQhq5Q0LJdTcY4nDZZT-17" vertex="1">
          <mxGeometry y="26" width="310" height="26" as="geometry" />
        </mxCell>
        <mxCell id="ecQhq5Q0LJdTcY4nDZZT-19" value="" style="line;strokeWidth=1;fillColor=none;align=left;verticalAlign=middle;spacingTop=-1;spacingLeft=3;spacingRight=3;rotatable=0;labelPosition=right;points=[];portConstraint=eastwest;" parent="ecQhq5Q0LJdTcY4nDZZT-17" vertex="1">
          <mxGeometry y="52" width="310" height="8" as="geometry" />
        </mxCell>
        <mxCell id="ecQhq5Q0LJdTcY4nDZZT-20" value="+ setLocalDateTime(Date localDateTime): void&#xa;+ getLocalDateTime(): Date" style="text;strokeColor=none;fillColor=#97D077;align=left;verticalAlign=top;spacingLeft=4;spacingRight=4;overflow=hidden;rotatable=0;points=[[0,0.5],[1,0.5]];portConstraint=eastwest;" parent="ecQhq5Q0LJdTcY4nDZZT-17" vertex="1">
          <mxGeometry y="60" width="310" height="50" as="geometry" />
        </mxCell>
      </root>
    </mxGraphModel>
  </diagram>
</mxfile>
